<svg width="255" height="161" viewBox="0 0 255 161" fill="none" xmlns="http://www.w3.org/2000/svg">
<path d="M77.8156 91.3083C75.0754 91.3083 72.7732 90.326 71.1547 88.4734C69.7232 86.8344 68.938 84.6349 68.938 82.2752C68.938 77.9134 71.7156 73.2153 77.8156 73.2153H88.5094C88.8566 73.2153 89.1397 72.9324 89.1397 72.5854V72.2544C89.1397 70.4659 87.6922 69.0191 85.9027 69.0191H74.7923C74.2048 69.0191 73.724 68.544 73.724 67.9514V63.1305C73.724 62.5432 74.1994 62.0627 74.7923 62.0627H86.9123C91.9814 62.0627 96.0891 66.1682 96.0891 71.2347V90.2405C96.0891 90.8278 95.6137 91.3083 95.0208 91.3083H77.8156ZM78.8305 80.161C77.0197 80.161 76.1918 81.2501 76.1918 82.2591C76.1918 83.2682 77.0197 84.3573 78.8305 84.3573H88.5148C88.862 84.3573 89.1451 84.0743 89.1451 83.7273V80.791C89.1451 80.444 88.862 80.161 88.5148 80.161H78.8305Z" fill="black"/>
<path d="M99.8227 91.3083C99.2351 91.3083 98.7544 90.8331 98.7544 90.2405V85.4196C98.7544 84.8324 99.2298 84.3519 99.8227 84.3519H116.552C118.043 84.3519 118.716 83.2575 118.716 82.2431C118.716 81.2021 118.048 80.1557 116.552 80.1557H107.792C101.398 80.1557 98.4873 75.4576 98.4873 71.0958C98.4873 68.7308 99.3152 66.5259 100.816 64.8869C102.509 63.0344 104.924 62.0574 107.787 62.0574H122.081C122.668 62.0574 123.149 62.5325 123.149 63.1251V67.946C123.149 68.5332 122.674 69.0137 122.081 69.0137H107.787C107.109 69.0137 106.542 69.238 106.158 69.6597C105.816 70.0334 105.624 70.5459 105.624 71.1012C105.624 72.1155 106.302 73.21 107.787 73.21H116.547C119.415 73.21 121.825 74.187 123.518 76.0395C125.019 77.6785 125.847 79.8834 125.847 82.2484C125.847 86.6102 122.936 91.3083 116.542 91.3083H99.8227Z" fill="black"/>
<path d="M137.112 91.3083C131.226 91.3083 128.24 88.4361 128.24 82.7663V71.2347C128.24 66.1682 132.347 62.0627 137.417 62.0627H146.519C149.077 62.0627 151.224 63.0451 152.736 64.9136C154.061 66.5473 154.787 68.7468 154.787 71.1012C154.787 75.4683 152.202 80.161 146.519 80.161H135.825C135.478 80.161 135.194 80.444 135.194 80.791V81.752C135.194 83.5565 136.049 84.3573 137.961 84.3573H150.348C150.936 84.3573 151.417 84.8324 151.417 85.425V90.2459C151.417 90.8331 150.941 91.3136 150.348 91.3136H137.112V91.3083ZM145.509 73.21C146.892 73.21 147.523 72.1156 147.523 71.1012C147.523 70.0602 146.898 69.0138 145.509 69.0138H138.437C136.647 69.0138 135.2 70.4606 135.2 72.249V72.58C135.2 72.9271 135.483 73.21 135.83 73.21H145.509Z" fill="black"/>
<path d="M166.074 91.3083C160.188 91.3083 157.202 88.4361 157.202 82.7663V71.2347C157.202 66.1682 161.309 62.0627 166.378 62.0627H175.48C178.039 62.0627 180.186 63.0451 181.698 64.9136C183.023 66.5473 183.749 68.7468 183.749 71.1012C183.749 75.4683 181.164 80.161 175.48 80.161H164.787C164.439 80.161 164.156 80.444 164.156 80.791V81.752C164.156 83.5565 165.011 84.3573 166.923 84.3573H179.31C179.898 84.3573 180.379 84.8324 180.379 85.425V90.2459C180.379 90.8331 179.903 91.3136 179.31 91.3136H166.074V91.3083ZM174.471 73.21C175.854 73.21 176.485 72.1156 176.485 71.1012C176.485 70.0602 175.86 69.0138 174.471 69.0138H167.399C165.609 69.0138 164.162 70.4606 164.162 72.249V72.58C164.162 72.9271 164.445 73.21 164.792 73.21H174.471Z" fill="black"/>
<path d="M207.102 91.3083C206.515 91.3083 206.034 90.8331 206.034 90.2405V72.249C206.034 70.4606 204.587 69.0138 202.797 69.0138H196.355C194.566 69.0138 193.118 70.4606 193.118 72.249V90.2405C193.118 90.8278 192.643 91.3083 192.05 91.3083H187.227C186.639 91.3083 186.158 90.8331 186.158 90.2405V71.2347C186.158 66.1682 190.266 62.0627 195.335 62.0627H203.807C208.876 62.0627 212.983 66.1682 212.983 71.2347V90.2405C212.983 90.8278 212.508 91.3083 211.915 91.3083H207.102Z" fill="black"/>
<path d="M207.188 106.38C206.6 106.38 206.12 105.904 206.12 105.312V100.491C206.12 99.9036 206.595 99.4232 207.188 99.4232H232.005C233.794 99.4232 235.242 97.9764 235.242 96.1879V91.9383C235.242 91.5912 234.959 91.3083 234.611 91.3083H224.548C219.479 91.3083 215.371 87.2028 215.371 82.1364V63.1305C215.371 62.5432 215.847 62.0627 216.439 62.0627H221.263C221.85 62.0627 222.331 62.5379 222.331 63.1305V81.122C222.331 82.9105 223.779 84.3573 225.568 84.3573H234.617C234.964 84.3573 235.247 84.0743 235.247 83.7273V63.1305C235.247 62.5432 235.722 62.0627 236.315 62.0627H241.139C241.726 62.0627 242.207 62.5379 242.207 63.1305V97.2023C242.207 102.269 238.099 106.374 233.03 106.374H207.188V106.38Z" fill="black"/>
<path d="M87.4625 100.56C87.8951 100.784 88.2263 101.099 88.4613 101.511C88.6964 101.922 88.8139 102.397 88.8139 102.936C88.8139 103.475 88.6964 103.95 88.4613 104.356C88.2263 104.762 87.8951 105.077 87.4625 105.296C87.0298 105.52 86.533 105.627 85.9668 105.627H84.0759V100.224H85.9668C86.533 100.229 87.0298 100.341 87.4625 100.56ZM87.2381 104.244C87.5479 103.934 87.7028 103.497 87.7028 102.936C87.7028 102.375 87.5479 101.932 87.2381 101.617C86.9283 101.302 86.4903 101.142 85.9241 101.142H85.1603V104.708H85.9241C86.4903 104.708 86.9283 104.554 87.2381 104.244Z" fill="#3F3E3E"/>
<path d="M93.0338 101.105V102.461H94.8553V103.32H93.0338V104.751H95.0849V105.632H91.9495V100.224H95.0849V101.105H93.0338Z" fill="#3F3E3E"/>
<path d="M99.4703 104.767H101.249V105.627H98.386V100.224H99.4703V104.767Z" fill="#3F3E3E"/>
<path d="M105.346 100.229V105.632H104.262V100.229H105.346Z" fill="#3F3E3E"/>
<path d="M113.593 100.229L111.612 105.632H110.298L108.316 100.229H109.475L110.96 104.522L112.44 100.229H113.593Z" fill="#3F3E3E"/>
<path d="M117.648 101.105V102.461H119.469V103.32H117.648V104.751H119.699V105.632H116.563V100.224H119.699V101.105H117.648Z" fill="#3F3E3E"/>
<path d="M125.793 105.627L124.602 103.523H124.089V105.627H123.005V100.224H125.035C125.452 100.224 125.809 100.299 126.103 100.443C126.397 100.587 126.616 100.79 126.766 101.041C126.915 101.292 126.985 101.569 126.985 101.879C126.985 102.237 126.883 102.557 126.675 102.84C126.466 103.128 126.162 103.326 125.751 103.432L127.043 105.621H125.793V105.627ZM124.089 102.712H124.998C125.291 102.712 125.51 102.642 125.655 102.498C125.799 102.354 125.874 102.157 125.874 101.906C125.874 101.66 125.799 101.468 125.655 101.329C125.51 101.19 125.291 101.126 124.998 101.126H124.089V102.712Z" fill="#3F3E3E"/>
<path d="M134.586 100.229L132.759 103.747V105.627H131.674V103.747L129.837 100.229H131.06L132.219 102.696L133.373 100.229H134.586Z" fill="#3F3E3E"/>
<path d="M145.018 104.602H142.865L142.507 105.632H141.369L143.314 100.224H144.574L146.519 105.632H145.376L145.018 104.602ZM144.719 103.731L143.939 101.473L143.159 103.731H144.719Z" fill="#3F3E3E"/>
<path d="M153.244 100.229V101.105H151.801V105.632H150.717V101.105H149.275V100.229H153.244Z" fill="#3F3E3E"/>
<path d="M165.006 100.229V105.632H163.921V103.336H161.609V105.632H160.524V100.229H161.609V102.45H163.921V100.229H165.006Z" fill="#3F3E3E"/>
<path d="M169.508 105.328C169.087 105.093 168.75 104.762 168.504 104.34C168.259 103.918 168.13 103.443 168.13 102.915C168.13 102.386 168.253 101.916 168.504 101.495C168.75 101.073 169.087 100.747 169.508 100.507C169.93 100.267 170.395 100.149 170.903 100.149C171.415 100.149 171.88 100.267 172.302 100.507C172.724 100.747 173.055 101.073 173.301 101.495C173.547 101.916 173.67 102.386 173.67 102.915C173.67 103.449 173.547 103.924 173.301 104.34C173.055 104.762 172.724 105.087 172.297 105.328C171.875 105.563 171.41 105.685 170.903 105.685C170.395 105.685 169.93 105.563 169.508 105.328ZM171.763 104.495C172.008 104.345 172.206 104.137 172.345 103.865C172.484 103.593 172.553 103.272 172.553 102.915C172.553 102.557 172.484 102.237 172.345 101.964C172.206 101.692 172.014 101.484 171.763 101.34C171.517 101.196 171.228 101.121 170.903 101.121C170.577 101.121 170.288 101.196 170.037 101.34C169.786 101.484 169.594 101.692 169.455 101.964C169.316 102.237 169.247 102.552 169.247 102.915C169.247 103.278 169.316 103.593 169.455 103.865C169.594 104.137 169.792 104.351 170.037 104.495C170.288 104.644 170.577 104.714 170.903 104.714C171.228 104.714 171.512 104.644 171.763 104.495Z" fill="#3F3E3E"/>
<path d="M182.686 100.229V105.632H181.602V102.119L180.154 105.632H179.332L177.879 102.119V105.632H176.794V100.229H178.023L179.743 104.244L181.463 100.229H182.686Z" fill="#3F3E3E"/>
<path d="M187.162 101.105V102.461H188.984V103.32H187.162V104.751H189.214V105.632H186.078V100.224H189.214V101.105H187.162Z" fill="#3F3E3E"/>
<path d="M51.1934 92.3546C49.3399 92.3546 47.4864 92.3386 45.6382 92.36C44.6287 92.3707 43.9396 91.9863 43.5123 91.0413C42.7859 89.4237 42.0113 87.8274 41.2475 86.2204C41.1353 85.9855 41.0125 85.7453 40.8415 85.5584C40.4249 85.11 39.848 85.1527 39.4955 85.6492C39.3245 85.8894 39.1963 86.167 39.0681 86.434C38.3096 88.0196 37.5405 89.5945 36.8087 91.1908C36.4348 92.0076 35.8472 92.36 34.9552 92.3546C31.2321 92.3386 27.509 92.3493 23.786 92.344C22.4559 92.344 22.1248 92.1251 21.6974 90.8598C20.7306 87.9929 19.7691 85.126 18.8237 82.2484C15.1754 71.1439 11.5325 60.034 7.88955 48.9294C7.56371 47.9364 7.75601 47.6802 8.80829 47.6802C11.2601 47.6802 13.7118 47.6748 16.1636 47.6855C19.4914 47.7015 22.472 49.789 23.4655 52.9762C24.8703 57.4821 26.1576 62.0253 27.509 66.5472C28.4705 69.7665 29.4106 72.9911 30.4415 76.189C31.1146 78.2871 32.2844 80.1023 34.015 81.5224C36.2799 83.3749 38.8972 83.5297 40.9537 81.9014C42.5028 80.6735 43.4429 79.0345 43.7687 77.1233C44.5005 72.8256 43.3521 69.1045 39.9922 66.2269C38.6301 65.0577 37.7755 63.707 37.3321 61.9506C36.4134 58.3309 35.3237 54.7593 34.3409 51.161C34.1432 50.4296 34.0578 49.6555 34.0044 48.8974C33.9509 48.1607 34.3676 47.7122 35.1047 47.7015C37.4229 47.6748 39.7465 47.6588 42.0648 47.7069C43.2559 47.7336 43.9877 48.4489 44.3563 49.7409C44.9332 51.7483 45.4727 53.7663 46.0976 55.763C47.1926 59.2919 48.3357 62.7994 49.4681 66.3177C49.8848 67.6096 49.9489 68.9176 49.4201 70.1616C48.8218 71.5656 48.8485 72.9057 49.2652 74.3471C49.9756 76.8029 50.5631 79.2961 51.1988 81.7733C51.2255 81.8801 51.2629 81.9868 51.2949 82.0936C51.4071 82.4887 51.6688 82.6382 52.0588 82.5421C52.4594 82.4406 52.5128 82.147 52.4487 81.8C52.1282 80.0916 51.8131 78.3885 51.4926 76.6801C51.4125 76.2584 51.3216 75.8366 51.2469 75.4149C51.1667 74.9664 51.327 74.6301 51.7757 74.5019C52.2297 74.3685 52.6196 74.5019 52.7692 74.9771C53.0523 75.8633 53.3034 76.7656 53.5544 77.6625C53.8909 78.869 54.2328 80.0702 54.5426 81.2821C54.6548 81.7252 54.8898 81.8801 55.3118 81.7893C55.7338 81.6932 55.7979 81.4049 55.7284 81.0152C55.3652 78.9171 55.0127 76.8189 54.6655 74.7155C54.564 74.0909 54.7669 73.7385 55.253 73.6371C55.7284 73.541 56.0756 73.7972 56.2359 74.4058C56.7754 76.4079 57.2988 78.4152 57.833 80.4172C57.9772 80.9565 58.3298 81.1753 58.7143 80.8924C58.896 80.7589 59.0295 80.3852 58.9868 80.1503C58.5274 77.5931 58.0093 75.0518 57.5552 72.4946C57.2935 70.9997 56.77 69.665 55.6964 68.5599C54.9753 67.8125 54.9325 66.8889 55.2103 65.9333C56.129 62.7567 57.0585 59.5855 57.9772 56.409C58.6342 54.1294 59.2859 51.8497 59.9376 49.5701C60.3275 48.214 61.0112 47.6908 62.4107 47.6908C65.5141 47.6908 68.6229 47.6908 71.7263 47.6908C72.597 47.6908 72.816 47.9898 72.549 48.8013C68.0941 62.4524 63.6393 76.0982 59.1791 89.7493C59.0242 90.2298 58.8425 90.6996 58.6556 91.1694C58.2763 92.1197 57.9398 92.3546 56.9249 92.3546C55.0073 92.36 53.1004 92.3546 51.1934 92.3546Z" fill="#ED1C24"/>
<path d="M32.4127 73.1245C32.3966 71.5816 32.7545 70.0548 33.5718 68.6453C33.6572 68.5012 33.7427 68.357 33.8388 68.2182C34.0739 67.8819 34.3944 67.5455 34.7896 67.7591C34.9339 67.8338 34.9125 68.4104 34.811 68.7094C33.951 71.3147 34.0311 73.8559 35.2437 76.3278C35.7885 77.4329 36.4295 78.4846 36.985 79.5844C37.1453 79.9047 37.1506 80.3104 37.2307 80.6735C36.8568 80.6308 36.4562 80.6575 36.1143 80.5293C34.7309 80.0008 33.9243 78.8903 33.3314 77.6037C32.7011 76.2103 32.3913 74.7368 32.4127 73.1245Z" fill="#ED1C24"/>
<path d="M71.1281 106.38H69.5898C69.4616 106.38 69.3547 106.273 69.3547 106.145V99.626C69.3547 99.4979 69.4616 99.3911 69.5898 99.3911H71.1281C71.2563 99.3911 71.3632 99.4979 71.3632 99.626V106.145C71.3632 106.273 71.2563 106.38 71.1281 106.38Z" fill="#3F3E3E"/>
<path d="M75.3747 106.38H73.8363C73.7082 106.38 73.6013 106.273 73.6013 106.145V99.626C73.6013 99.4979 73.7082 99.3911 73.8363 99.3911H75.3747C75.5029 99.3911 75.6097 99.4979 75.6097 99.626V106.145C75.6097 106.273 75.5029 106.38 75.3747 106.38Z" fill="#ED1C24"/>
<path d="M79.621 106.38H78.0827C77.9545 106.38 77.8477 106.273 77.8477 106.145V99.626C77.8477 99.4979 77.9545 99.3911 78.0827 99.3911H79.621C79.7492 99.3911 79.8561 99.4979 79.8561 99.626V106.145C79.8561 106.273 79.7492 106.38 79.621 106.38Z" fill="#3F3E3E"/>
<path d="M195.095 106.38H193.556C193.428 106.38 193.321 106.273 193.321 106.145V99.626C193.321 99.4979 193.428 99.3911 193.556 99.3911H195.095C195.223 99.3911 195.33 99.4979 195.33 99.626V106.145C195.33 106.273 195.223 106.38 195.095 106.38Z" fill="#ED1C24"/>
<path d="M199.341 106.38H197.803C197.675 106.38 197.568 106.273 197.568 106.145V99.626C197.568 99.4979 197.675 99.3911 197.803 99.3911H199.341C199.469 99.3911 199.576 99.4979 199.576 99.626V106.145C199.576 106.273 199.469 106.38 199.341 106.38Z" fill="#3F3E3E"/>
<path d="M203.588 106.38H202.049C201.921 106.38 201.814 106.273 201.814 106.145V99.626C201.814 99.4979 201.921 99.3911 202.049 99.3911H203.588C203.716 99.3911 203.823 99.4979 203.823 99.626V106.145C203.823 106.273 203.721 106.38 203.588 106.38Z" fill="#ED1C24"/>
<path d="M175.609 47.9898C175.609 44.4663 177.74 41.9037 181.089 41.9037V46.4042C179.524 46.0145 178.456 46.9701 178.456 48.2941C178.456 50.1413 180.566 51.8604 183.546 51.8604C185.806 51.8604 186.484 50.8834 186.484 50.4029C186.484 50.1627 186.222 49.9919 185.288 49.9919C184.481 49.9919 183.418 49.9919 182.766 49.7089V46.5163C183.856 47.1463 185.245 47.1463 186.42 47.1463H191.008C191.377 47.1463 191.42 48.1233 191.42 48.6465C191.42 49.127 191.377 49.9919 191.008 49.9919H190.768C190.789 50.12 190.789 50.2535 190.789 50.4029C190.789 52.9228 188.573 55.3786 183.546 55.3786C179.043 55.3786 175.609 52.2929 175.609 47.9898ZM181.65 56.094C182.585 56.094 183.343 56.724 183.584 57.5515C183.824 56.724 184.582 56.094 185.517 56.094C186.628 56.094 187.542 57.0069 187.542 58.1174C187.542 59.2279 186.628 60.1194 185.517 60.1194C184.582 60.1194 183.819 59.5108 183.584 58.662C183.343 59.5108 182.585 60.1194 181.65 60.1194C180.539 60.1194 179.647 59.2279 179.647 58.1174C179.647 57.0069 180.544 56.094 181.65 56.094Z" fill="#ED1C24"/>
<path d="M190.592 48.6412C190.592 48.118 190.635 47.141 191.003 47.141C192.2 47.141 192.744 46.2067 192.744 44.4449V38.7325C194.55 39.6027 195.987 39.9497 198.246 39.9924C197.765 40.3821 197.028 40.6864 197.028 42.6244V44.4503C197.028 46.212 197.701 47.1463 198.77 47.1463C199.138 47.1463 199.181 48.1233 199.181 48.6465C199.181 49.127 199.138 49.9918 198.77 49.9918C197.29 49.9918 195.965 49.3832 195.031 48.513C194.181 49.3619 192.878 49.9918 191.008 49.9918C190.635 49.9865 190.592 49.1216 190.592 48.6412ZM195.18 34.4722C196.291 34.4722 197.205 35.3851 197.205 36.4955C197.205 37.606 196.291 38.4976 195.18 38.4976C194.069 38.4976 193.177 37.606 193.177 36.4955C193.177 35.3851 194.069 34.4722 195.18 34.4722Z" fill="#ED1C24"/>
<path d="M198.353 48.6411C198.353 48.1179 198.396 47.1409 198.764 47.1409C200.244 47.1409 200.896 46.2066 200.896 44.4449V38.7324C202.68 39.6026 204.138 39.9497 206.397 39.9924C205.895 40.3821 205.158 40.6864 205.158 42.6244V44.4502C205.158 46.212 205.853 47.1463 207.289 47.1463C207.658 47.1463 207.701 48.1232 207.701 48.6464C207.701 49.1269 207.658 49.9918 207.289 49.9918C205.527 49.9918 204.09 49.3618 203.134 48.4703C202.22 49.3405 200.805 49.9918 198.764 49.9918C198.396 49.9865 198.353 49.1216 198.353 48.6411ZM201.205 51.0115C202.14 51.0115 202.904 51.6415 203.139 52.469C203.379 51.6415 204.138 51.0115 205.073 51.0115C206.184 51.0115 207.097 51.9244 207.097 53.0349C207.097 54.1453 206.184 55.0369 205.073 55.0369C204.138 55.0369 203.379 54.4283 203.139 53.5794C202.899 54.4283 202.14 55.0369 201.205 55.0369C200.094 55.0369 199.202 54.1453 199.202 53.0349C199.202 51.9244 200.094 51.0115 201.205 51.0115Z" fill="#ED1C24"/>
<path d="M206.878 48.6411C206.878 48.1179 206.921 47.1409 207.289 47.1409C208.486 47.1409 209.009 46.2066 209.009 44.4449V38.7324C210.815 39.6026 212.252 39.9497 214.511 39.9924C214.009 40.3821 213.293 40.6864 213.293 42.6244V44.4502C213.293 45.7742 213.774 46.6231 214.468 46.9701C214.88 44.3167 217.689 39.341 222.838 39.341C226.428 39.341 227.753 41.4498 227.753 44.904C227.753 48.577 225.515 49.9918 222.662 49.9918H215.227C213.662 49.9918 212.289 49.3832 211.311 48.4916C210.462 49.3405 209.159 49.9918 207.289 49.9918C206.921 49.9865 206.878 49.1216 206.878 48.6411ZM221.514 47.1409C222.71 47.1409 223.276 46.4896 223.276 45.4699C223.276 43.2757 222.278 42.7525 221.231 42.7525C218.993 42.7525 217.401 45.598 217.123 47.1409H221.514Z" fill="#ED1C24"/>
<path d="M230.605 53.9425V50.814C231.561 51.4226 232.736 51.7056 233.89 51.7056C235.674 51.7056 236.871 50.8567 237.084 49.3565C236.454 49.8797 235.519 50.2054 234.195 50.2054C231.369 50.2054 229.216 48.3795 229.216 44.9681C229.216 41.4926 231.871 39.3411 235.327 39.3411C238.826 39.3411 241.459 41.5353 241.459 46.6658V47.3812C241.352 52.4476 238.874 54.5778 234.35 54.5778C233.084 54.5725 231.604 54.3589 230.605 53.9425ZM235.3 47.2477C236.411 47.2477 237.084 46.2067 237.084 44.8346C237.084 43.2917 236.497 42.1813 235.322 42.1813C234.232 42.1813 233.538 43.1583 233.538 44.8346C233.538 46.228 234.28 47.2477 235.3 47.2477Z" fill="#ED1C24"/>
<path d="M97.1843 44.3115H171.549C171.859 44.3115 172.078 44.6212 171.971 44.9095L169.284 52.3783C169.22 52.5545 169.049 52.6773 168.862 52.6773H94.4975C94.1877 52.6773 93.9687 52.3677 94.0755 52.0794L96.7623 44.6105C96.8264 44.4343 96.992 44.3115 97.1843 44.3115Z" fill="#ED1C24"/>
<path d="M93.3703 44.3115H95.0315L92.0243 52.6826H90.363L93.3703 44.3115Z" fill="#ED1C24"/>
<g opacity="0.8">
<path d="M90.1494 44.3115H91.8106L88.798 52.6826H87.1421L90.1494 44.3115Z" fill="#ED1C24"/>
</g>
<g opacity="0.6">
<path d="M86.9284 44.3115H88.5843L85.577 52.6826H83.9158L86.9284 44.3115Z" fill="#ED1C24"/>
</g>
<g opacity="0.4">
<path d="M83.7021 44.3115H85.3633L82.356 52.6826H80.6948L83.7021 44.3115Z" fill="#ED1C24"/>
</g>
<g opacity="0.2">
<path d="M80.4812 44.3115H82.1424L79.1351 52.6826H77.4739L80.4812 44.3115Z" fill="#ED1C24"/>
</g>
<path d="M66.6466 43.3879H63.2066C63.2066 32.0484 54.9913 22.6362 44.196 20.741C44.2174 20.5595 44.2281 20.3726 44.2281 20.1911C44.2281 17.8474 42.6043 15.9521 40.5958 15.9521C38.5874 15.9521 36.9583 17.8474 36.9583 20.1911C36.9583 20.3352 36.9689 20.4741 36.9796 20.6182C25.7944 22.1771 17.1839 31.7761 17.1839 43.3932H13.7439C12.6222 43.3932 11.7141 43.847 11.7141 44.4076V44.5944C11.7141 45.155 12.6222 45.6088 13.7439 45.6088H66.6466C67.7683 45.6088 68.6763 45.155 68.6763 44.5944V44.4076C68.6763 43.8417 67.7683 43.3879 66.6466 43.3879ZM32.3912 25.5031C31.0772 26.6029 29.5335 27.7134 28.2141 29.0427C25.4365 31.8509 23.6258 35.241 22.5948 39.0475C22.3011 40.1366 22.1408 40.254 21.0885 40.206C20.3834 40.1793 20.1644 39.9124 20.3247 39.213C21.1152 35.8015 22.7871 32.8546 25.1214 30.276C27.1031 28.0871 29.4213 26.384 32.2897 25.5191C32.3378 25.5031 32.3912 25.4925 32.4126 25.4925C32.4073 25.4978 32.4019 25.4978 32.3912 25.5031Z" fill="#ED1C24"/>
<path d="M9.57755 97.3303L33.5985 98.1899L9.57755 99.0494C9.47072 99.0547 9.3906 98.6703 9.38525 98.1952C9.3906 97.7254 9.47072 97.3357 9.57755 97.3303Z" fill="black"/>
<path d="M11.789 92.8992L35.8099 93.4117L11.789 93.9242C11.6608 93.9295 11.5539 93.7 11.5486 93.417C11.5486 93.1341 11.6554 92.9045 11.789 92.8992Z" fill="black"/>
<path d="M11.789 102.37L35.8099 102.883L11.789 103.395C11.6608 103.4 11.5539 103.171 11.5486 102.888C11.5486 102.605 11.6554 102.375 11.789 102.37Z" fill="black"/>
<path d="M28.7696 106.684C33.7109 106.684 37.7167 102.68 37.7167 97.7414C37.7167 92.8027 33.7109 88.7991 28.7696 88.7991C23.8283 88.7991 19.8225 92.8027 19.8225 97.7414C19.8225 102.68 23.8283 106.684 28.7696 106.684Z" fill="black"/>
<path d="M28.7697 101.762C30.9911 101.762 32.7919 99.9617 32.7919 97.7415C32.7919 95.5213 30.9911 93.7214 28.7697 93.7214C26.5484 93.7214 24.7476 95.5213 24.7476 97.7415C24.7476 99.9617 26.5484 101.762 28.7697 101.762Z" fill="white"/>
<path d="M50.8782 106.684C55.8196 106.684 59.8253 102.68 59.8253 97.7414C59.8253 92.8027 55.8196 88.7991 50.8782 88.7991C45.9369 88.7991 41.9312 92.8027 41.9312 97.7414C41.9312 102.68 45.9369 106.684 50.8782 106.684Z" fill="black"/>
<path d="M50.8784 101.762C53.0998 101.762 54.9006 99.9617 54.9006 97.7415C54.9006 95.5213 53.0998 93.7214 50.8784 93.7214C48.657 93.7214 46.8562 95.5213 46.8562 97.7415C46.8562 99.9617 48.657 101.762 50.8784 101.762Z" fill="white"/>
<path d="M103.519 46.5804L103.674 45.7422H105.357L104.336 51.4813H103.407L104.272 46.5804H103.519Z" fill="white"/>
<path d="M108.599 46.3668C109.005 45.8436 109.592 45.582 110.367 45.582C110.965 45.582 111.398 45.7475 111.66 46.0732C111.921 46.3989 112.055 46.8526 112.055 47.4346C112.055 47.7496 112.018 48.1072 111.948 48.5183C111.788 49.4366 111.499 50.152 111.093 50.6752C110.687 51.1984 110.095 51.46 109.325 51.46C108.727 51.46 108.294 51.2945 108.033 50.9688C107.771 50.6431 107.637 50.184 107.637 49.5968C107.637 49.2924 107.675 48.9348 107.744 48.513C107.91 47.6108 108.193 46.89 108.599 46.3668ZM111.152 47.5147C111.152 47.1676 111.083 46.9007 110.944 46.7085C110.805 46.5163 110.565 46.4202 110.223 46.4202C109.881 46.4202 109.608 46.5163 109.4 46.7032C109.192 46.89 109.037 47.1356 108.925 47.4292C108.813 47.7229 108.727 48.0859 108.652 48.513C108.578 48.9294 108.54 49.2604 108.54 49.5167C108.54 49.869 108.61 50.136 108.748 50.3282C108.887 50.5204 109.133 50.6165 109.475 50.6165C109.817 50.6165 110.089 50.5204 110.298 50.3335C110.506 50.1466 110.661 49.9011 110.773 49.6074C110.88 49.3085 110.971 48.9454 111.045 48.5183C111.115 48.0859 111.152 47.7549 111.152 47.5147Z" fill="white"/>
<path d="M115.404 46.3668C115.81 45.8436 116.398 45.582 117.172 45.582C117.77 45.582 118.203 45.7475 118.465 46.0732C118.727 46.3989 118.86 46.8526 118.86 47.4346C118.86 47.7496 118.823 48.1072 118.753 48.5183C118.593 49.4366 118.305 50.152 117.899 50.6752C117.493 51.1984 116.9 51.46 116.131 51.46C115.532 51.46 115.1 51.2945 114.838 50.9688C114.576 50.6431 114.443 50.184 114.443 49.5968C114.443 49.2924 114.48 48.9348 114.549 48.513C114.71 47.6108 114.993 46.89 115.404 46.3668ZM117.952 47.5147C117.952 47.1676 117.883 46.9007 117.744 46.7085C117.605 46.5163 117.364 46.4202 117.023 46.4202C116.681 46.4202 116.408 46.5163 116.2 46.7032C115.992 46.89 115.837 47.1356 115.725 47.4292C115.612 47.7229 115.527 48.0859 115.452 48.513C115.377 48.9294 115.34 49.2604 115.34 49.5167C115.34 49.869 115.409 50.136 115.548 50.3282C115.687 50.5204 115.933 50.6165 116.275 50.6165C116.617 50.6165 116.889 50.5204 117.097 50.3335C117.306 50.1466 117.461 49.9011 117.573 49.6074C117.68 49.3085 117.77 48.9454 117.845 48.5183C117.92 48.0859 117.952 47.7549 117.952 47.5147Z" fill="white"/>
<path d="M126.317 45.849L122.097 51.476H121.189L125.409 45.849H126.317ZM121.963 46.0999C122.231 45.881 122.546 45.7689 122.909 45.7689C123.219 45.7689 123.47 45.8543 123.662 46.0252C123.849 46.196 123.945 46.4363 123.945 46.7352C123.945 46.8153 123.935 46.9061 123.918 47.0022C123.854 47.3866 123.689 47.6855 123.416 47.9097C123.144 48.134 122.829 48.2461 122.471 48.2461C122.156 48.2461 121.91 48.1607 121.718 47.9898C121.531 47.819 121.435 47.5787 121.435 47.2798C121.435 47.1944 121.445 47.1036 121.461 47.0022C121.531 46.6231 121.696 46.3241 121.963 46.0999ZM122.182 47.0075C122.166 47.0929 122.156 47.173 122.156 47.2424C122.156 47.5467 122.295 47.6962 122.567 47.6962C122.722 47.6962 122.856 47.6375 122.968 47.5254C123.08 47.4132 123.155 47.2371 123.197 47.0075C123.213 46.9274 123.224 46.8527 123.224 46.7833C123.224 46.6338 123.187 46.5217 123.117 46.4416C123.042 46.3669 122.941 46.3295 122.813 46.3295C122.471 46.3295 122.257 46.5537 122.182 47.0075ZM124.111 49.4099C124.378 49.191 124.698 49.0789 125.056 49.0789C125.366 49.0789 125.612 49.1644 125.799 49.3352C125.986 49.506 126.082 49.7409 126.082 50.0399C126.082 50.1253 126.071 50.2161 126.055 50.3175C125.991 50.7019 125.825 51.0009 125.553 51.2251C125.286 51.4493 124.971 51.5614 124.613 51.5614C124.298 51.5614 124.047 51.476 123.86 51.3052C123.673 51.1343 123.577 50.8941 123.577 50.5951C123.577 50.5097 123.587 50.419 123.603 50.3229C123.673 49.9331 123.838 49.6288 124.111 49.4099ZM124.543 49.7997C124.431 49.9118 124.357 50.0826 124.319 50.3122C124.303 50.3976 124.292 50.4777 124.292 50.5471C124.292 50.6966 124.33 50.8087 124.399 50.8834C124.469 50.9582 124.576 50.9902 124.704 50.9902C125.04 50.9902 125.249 50.766 125.334 50.3122C125.35 50.2321 125.361 50.1574 125.361 50.0879C125.361 49.9385 125.323 49.8264 125.254 49.7463C125.179 49.6715 125.078 49.6342 124.949 49.6342C124.789 49.6342 124.65 49.6875 124.543 49.7997Z" fill="white"/>
<path d="M137.929 45.8596L136.936 51.476H136.012L136.45 48.9934H133.806L133.368 51.476H132.444L133.437 45.8596H134.361L133.934 48.2834H136.578L137.005 45.8596H137.929Z" fill="white"/>
<path d="M143.356 50.3282H141.001L140.392 51.476H139.43L142.438 45.849H143.506L144.526 51.476H143.554L143.356 50.3282ZM143.239 49.6128L142.78 46.9701L141.391 49.6128H143.239Z" fill="white"/>
<path d="M148.073 50.7766H149.975L149.846 51.4813H147.026L148.02 45.865H148.944L148.073 50.7766Z" fill="white"/>
<path d="M155.823 50.3282H153.468L152.859 51.476H151.897L154.905 45.849H155.973L156.993 51.476H156.021L155.823 50.3282ZM155.701 49.6128L155.241 46.9701L153.852 49.6128H155.701Z" fill="white"/>
<path d="M160.535 50.7766H162.436L162.308 51.4813H159.488L160.481 45.865H161.405L160.535 50.7766Z" fill="white"/>
</svg>
